<svg xmlns="http://www.w3.org/2000/svg" xmlns:xlink="http://www.w3.org/1999/xlink" width="500" zoomAndPan="magnify" viewBox="0 0 375 374.999991" height="500" preserveAspectRatio="xMidYMid meet" version="1.0"><defs><g/><clipPath id="9d9cdc28af"><path d="M 28.203125 28.203125 L 346.789062 28.203125 L 346.789062 346.789062 L 28.203125 346.789062 Z M 28.203125 28.203125 " clip-rule="nonzero"/></clipPath><clipPath id="61eca8068a"><path d="M 187.496094 28.203125 C 99.523438 28.203125 28.203125 99.523438 28.203125 187.496094 C 28.203125 275.472656 99.523438 346.789062 187.496094 346.789062 C 275.472656 346.789062 346.789062 275.472656 346.789062 187.496094 C 346.789062 99.523438 275.472656 28.203125 187.496094 28.203125 Z M 187.496094 28.203125 " clip-rule="nonzero"/></clipPath><clipPath id="7e1c8707fd"><path d="M 121.171875 117.421875 L 253.917969 117.421875 L 253.917969 250.167969 L 121.171875 250.167969 Z M 121.171875 117.421875 " clip-rule="nonzero"/></clipPath><clipPath id="c051c6cf7a"><path d="M 121.171875 117.421875 L 251.328125 117.421875 L 251.328125 246.285156 L 121.171875 246.285156 Z M 121.171875 117.421875 " clip-rule="nonzero"/></clipPath><clipPath id="9a25afe024"><path d="M 121.171875 117.421875 L 239 117.421875 L 239 238.519531 L 121.171875 238.519531 Z M 121.171875 117.421875 " clip-rule="nonzero"/></clipPath></defs><g clip-path="url(#9d9cdc28af)"><g clip-path="url(#61eca8068a)"><path stroke-linecap="butt" transform="matrix(0.75, 0, 0, 0.75, 28.203747, 28.203743)" fill="none" stroke-linejoin="miter" d="M 212.389796 -0.000823504 C 95.092921 -0.000823504 -0.000829504 95.092927 -0.000829504 212.389802 C -0.000829504 329.691885 95.092921 424.780427 212.389796 424.780427 C 329.691879 424.780427 424.780421 329.691885 424.780421 212.389802 C 424.780421 95.092927 329.691879 -0.000823504 212.389796 -0.000823504 Z M 212.389796 -0.000823504 " stroke="#ffffff" stroke-width="26" stroke-opacity="1" stroke-miterlimit="4"/></g></g><g clip-path="url(#7e1c8707fd)"><path fill="#f3ff27" d="M 121.171875 183.792969 C 121.171875 147.136719 150.886719 117.421875 187.542969 117.421875 C 224.199219 117.421875 253.917969 147.136719 253.917969 183.792969 C 253.917969 220.453125 224.199219 250.167969 187.542969 250.167969 C 150.886719 250.167969 121.171875 220.453125 121.171875 183.792969 " fill-opacity="1" fill-rule="nonzero"/></g><g clip-path="url(#c051c6cf7a)"><path fill="#ddfb00" d="M 164.714844 246.136719 C 153.648438 235.355469 146.773438 220.289062 146.773438 203.613281 C 146.773438 170.824219 173.355469 144.242188 206.144531 144.242188 C 224.164062 144.242188 240.308594 152.273438 251.199219 164.949219 C 243.074219 137.472656 217.652344 117.421875 187.542969 117.421875 C 150.886719 117.421875 121.171875 147.136719 121.171875 183.792969 C 121.171875 212.429688 139.304688 236.832031 164.714844 246.136719 " fill-opacity="1" fill-rule="nonzero"/></g><g clip-path="url(#9a25afe024)"><path fill="#baf400" d="M 149.683594 238.3125 C 140.273438 226.859375 134.625 212.195312 134.625 196.214844 C 134.625 159.554688 164.339844 129.839844 201 129.839844 C 215.070312 129.839844 228.117188 134.222656 238.855469 141.695312 C 226.683594 126.875 208.21875 117.421875 187.542969 117.421875 C 150.886719 117.421875 121.171875 147.136719 121.171875 183.792969 C 121.171875 206.378906 132.453125 226.324219 149.683594 238.3125 " fill-opacity="1" fill-rule="nonzero"/></g><path fill="#feffbf" d="M 145.382812 216.503906 C 154.457031 227.589844 167.453125 235.371094 182.964844 239.007812 C 195.273438 241.894531 208.757812 242.140625 223.238281 239.761719 C 227.082031 237.304688 230.65625 234.460938 233.90625 231.285156 C 198.164062 240.292969 167.195312 233.527344 150.097656 212.640625 C 138.113281 198.003906 135.539062 179 143.539062 164.234375 C 149.683594 152.890625 160.238281 148.285156 175.808594 150.160156 C 189.660156 151.832031 204.394531 158.140625 216.230469 163.210938 C 222.074219 165.714844 227.125 167.875 230.804688 168.886719 C 239.996094 171.414062 246.960938 169.632812 251.695312 166.714844 C 251.144531 164.648438 250.5 162.621094 249.761719 160.636719 C 246.644531 163.050781 241.128906 165.402344 232.417969 163.011719 C 229.140625 162.109375 224.269531 160.023438 218.632812 157.609375 C 207.078125 152.660156 191.257812 145.886719 176.539062 144.109375 C 174.0625 143.8125 171.683594 143.664062 169.40625 143.664062 C 155.027344 143.664062 144.542969 149.585938 138.179688 161.332031 C 128.996094 178.285156 131.824219 199.941406 145.382812 216.503906 " fill-opacity="1" fill-rule="nonzero"/><g fill="#f3ff27" fill-opacity="1"><g transform="translate(116.205549, 160.147501)"><g><path d="M 0.890625 -1.703125 L -37.390625 -21.859375 L -31.234375 -33.53125 L -6.203125 -24.4375 L -27.859375 -39.9375 L -21.65625 -51.71875 L 16.625 -31.5625 L 12.921875 -24.546875 L -14.671875 -39.078125 L 10.609375 -20.140625 L 7 -13.28125 L -23.0625 -23.125 L 4.53125 -8.59375 Z M 0.890625 -1.703125 "/></g></g></g><g fill="#f3ff27" fill-opacity="1"><g transform="translate(134.607982, 128.422995)"><g><path d="M 1.484375 -1.21875 L -26.03125 -34.609375 L -12.65625 -45.625 L -7.328125 -39.171875 L -13.90625 -33.765625 L -8.5625 -27.28125 L -2.265625 -32.46875 L 2.921875 -26.171875 L -3.375 -20.984375 L 2.9375 -13.3125 L 9.9375 -19.078125 L 15.28125 -12.59375 Z M 1.484375 -1.21875 "/></g></g></g><g fill="#f3ff27" fill-opacity="1"><g transform="translate(150.940319, 114.661134)"><g><path d="M -13.546875 -41.140625 L -2.390625 -45.375 C 0.492188 -46.46875 2.960938 -46.488281 5.015625 -45.4375 C 7.066406 -44.382812 8.707031 -42.289062 9.9375 -39.15625 L 17.1875 -20.265625 C 18.738281 -16.296875 19.191406 -13.035156 18.546875 -10.484375 C 17.898438 -7.941406 15.941406 -6.050781 12.671875 -4.8125 L 1.796875 -0.6875 Z M 8.625 -11.46875 C 10.113281 -12.03125 10.585938 -13.03125 10.046875 -14.46875 L 2.125 -35.359375 C 1.78125 -36.253906 1.445312 -36.898438 1.125 -37.296875 C 0.800781 -37.703125 0.425781 -37.910156 0 -37.921875 C -0.4375 -37.941406 -1.046875 -37.800781 -1.828125 -37.5 L -2.734375 -37.15625 L 7.21875 -10.921875 Z M 8.625 -11.46875 "/></g></g></g><g fill="#f3ff27" fill-opacity="1"><g transform="translate(174.364403, 105.84205)"><g><path d="M 12.234375 0.21875 C 8.742188 0.269531 6.078125 -0.753906 4.234375 -2.859375 C 2.390625 -4.972656 1.4375 -7.957031 1.375 -11.8125 L 1.0625 -32.421875 C 1 -36.148438 1.859375 -38.972656 3.640625 -40.890625 C 5.421875 -42.816406 8.054688 -43.804688 11.546875 -43.859375 C 15.046875 -43.921875 17.71875 -43.015625 19.5625 -41.140625 C 21.40625 -39.273438 22.359375 -36.476562 22.421875 -32.75 L 22.734375 -12.140625 C 22.796875 -8.242188 21.9375 -5.222656 20.15625 -3.078125 C 18.375 -0.941406 15.734375 0.15625 12.234375 0.21875 Z M 12.109375 -7.75 C 12.890625 -7.757812 13.40625 -8.101562 13.65625 -8.78125 C 13.914062 -9.457031 14.039062 -10.398438 14.03125 -11.609375 L 13.6875 -32.765625 C 13.675781 -33.703125 13.539062 -34.460938 13.28125 -35.046875 C 13.019531 -35.628906 12.503906 -35.914062 11.734375 -35.90625 C 10.285156 -35.882812 9.582031 -34.78125 9.625 -32.59375 L 9.953125 -11.484375 C 9.972656 -10.242188 10.132812 -9.304688 10.4375 -8.671875 C 10.75 -8.046875 11.304688 -7.738281 12.109375 -7.75 Z M 12.109375 -7.75 "/></g></g></g><g fill="#f3ff27" fill-opacity="1"><g transform="translate(199.44546, 105.907141)"><g><path d="M 1.828125 0.578125 L 14.796875 -40.6875 L 23.0625 -38.09375 L 12.296875 -3.84375 L 20.8125 -1.171875 L 18.609375 5.84375 Z M 1.828125 0.578125 "/></g></g></g><g fill="#f3ff27" fill-opacity="1"><g transform="translate(219.276946, 111.887855)"><g><path d="M 0.609375 0.4375 L 29.296875 -32.203125 L 41.1875 -23.640625 L 19.25 13.875 L 12.59375 9.078125 L 16.1875 3.046875 L 11.9375 -0.015625 L 7.4375 5.359375 Z M 16.5 -5.234375 L 19.6875 -2.953125 L 31.015625 -21.921875 L 30.6875 -22.15625 Z M 16.5 -5.234375 "/></g></g></g><g fill="#f3ff27" fill-opacity="1"><g transform="translate(239.564192, 127.81955)"><g><path d="M 25.609375 -16.921875 L 31.203125 -19.296875 L 29.25 -21.75 L 34.953125 -26.296875 L 40.6875 -19.078125 L 35.140625 -14.65625 L 28.84375 -12.859375 Z M 25.609375 -16.921875 "/></g></g></g><g fill="#f3ff27" fill-opacity="1"><g transform="translate(248.321181, 137.940125)"><g><path d="M 4.421875 11.359375 C 2.878906 7.742188 2.660156 4.75 3.765625 2.375 C 4.867188 0.0078125 7.410156 -2.023438 11.390625 -3.734375 L 15.28125 -5.40625 L 18.640625 2.421875 L 13.6875 4.546875 C 11.71875 5.390625 11.003906 6.445312 11.546875 7.71875 C 11.847656 8.425781 12.265625 8.828125 12.796875 8.921875 C 13.335938 9.023438 14.097656 8.863281 15.078125 8.4375 C 16.378906 7.882812 17.382812 7.269531 18.09375 6.59375 C 18.8125 5.914062 19.351562 5.21875 19.71875 4.5 C 20.082031 3.78125 20.601562 2.546875 21.28125 0.796875 L 23.234375 -4.09375 C 24.691406 -7.863281 26.992188 -10.425781 30.140625 -11.78125 C 33.535156 -13.226562 36.453125 -13.554688 38.890625 -12.765625 C 41.335938 -11.972656 43.203125 -10.078125 44.484375 -7.078125 C 46.023438 -3.492188 46.179688 -0.507812 44.953125 1.875 C 43.734375 4.269531 41.097656 6.332031 37.046875 8.0625 L 33.578125 -0.03125 L 36.296875 -1.265625 C 36.804688 -1.484375 37.15625 -1.804688 37.34375 -2.234375 C 37.53125 -2.660156 37.515625 -3.140625 37.296875 -3.671875 C 37.035156 -4.285156 36.664062 -4.671875 36.1875 -4.828125 C 35.71875 -4.992188 35.191406 -4.953125 34.609375 -4.703125 C 33.304688 -4.140625 32.273438 -2.820312 31.515625 -0.75 L 29.0625 5.796875 C 28.46875 7.316406 27.851562 8.632812 27.21875 9.75 C 26.582031 10.875 25.71875 11.925781 24.625 12.90625 C 23.539062 13.882812 22.117188 14.75 20.359375 15.5 C 16.441406 17.1875 13.160156 17.742188 10.515625 17.171875 C 7.867188 16.597656 5.835938 14.660156 4.421875 11.359375 Z M 4.421875 11.359375 "/></g></g></g><path stroke-linecap="butt" transform="matrix(0.75, 0, 0, 0.75, 92.103697, 215.177931)" fill="none" stroke-linejoin="miter" d="M 52.460699 107.002349 L 52.460699 22.934636 L 69.788825 22.934636 L 77.507576 63.14818 L 77.507576 22.934636 L 93.757577 22.934636 L 93.757577 107.002349 L 77.314868 107.002349 L 68.903409 64.919013 L 68.903409 107.002349 Z M 100.221119 107.002349 L 100.221119 22.934636 L 116.47112 22.934636 L 116.47112 107.002349 Z M 123.028412 107.002349 L 123.028412 22.934636 L 139.66383 22.934636 L 139.66383 56.601304 L 147.502372 22.934636 L 164.41904 22.934636 L 155.028414 61.382555 L 166.377373 107.002349 L 148.955497 107.002349 L 139.75758 66.278388 L 139.75758 107.002349 Z M 169.033624 107.002349 L 169.033624 22.934636 L 202.700293 22.934636 L 202.700293 39.158595 L 186.143 39.158595 L 186.143 55.528388 L 202.007584 55.528388 L 202.007584 71.372139 L 186.143 71.372139 L 186.143 90.65339 L 203.778418 90.65339 L 203.778418 107.002349 Z M 169.033624 107.002349 " stroke="#244852" stroke-width="7.34103" stroke-opacity="1" stroke-miterlimit="4"/><g fill="#ffffff" fill-opacity="1"><g transform="translate(128.654476, 295.427925)"><g><path d="M 2.796875 0 L 2.796875 -63.0625 L 15.78125 -63.0625 L 21.578125 -32.890625 L 21.578125 -63.0625 L 33.765625 -63.0625 L 33.765625 0 L 21.4375 0 L 15.125 -31.5625 L 15.125 0 Z M 2.796875 0 "/></g></g></g><g fill="#ffffff" fill-opacity="1"><g transform="translate(165.064006, 295.427925)"><g><path d="M 2.203125 0 L 2.203125 -63.0625 L 14.390625 -63.0625 L 14.390625 0 Z M 2.203125 0 "/></g></g></g><g fill="#ffffff" fill-opacity="1"><g transform="translate(181.580421, 295.427925)"><g><path d="M 2.796875 0 L 2.796875 -63.0625 L 15.265625 -63.0625 L 15.265625 -37.796875 L 21.140625 -63.0625 L 33.84375 -63.0625 L 26.796875 -34.203125 L 35.3125 0 L 22.234375 0 L 15.34375 -30.53125 L 15.34375 0 Z M 2.796875 0 "/></g></g></g><g fill="#ffffff" fill-opacity="1"><g transform="translate(216.081386, 295.427925)"><g><path d="M 2.796875 0 L 2.796875 -63.0625 L 28.046875 -63.0625 L 28.046875 -50.875 L 15.640625 -50.875 L 15.640625 -38.609375 L 27.53125 -38.609375 L 27.53125 -26.71875 L 15.640625 -26.71875 L 15.640625 -12.265625 L 28.84375 -12.265625 L 28.84375 0 Z M 2.796875 0 "/></g></g></g><g fill="#ffffff" fill-opacity="1"><g transform="translate(67.30848, 214.145259)"><g><path d="M 9.6875 -2.015625 L 9.6875 0 L 1.28125 0 L 1.28125 -10.84375 L 9.484375 -10.84375 L 9.484375 -8.828125 L 3.78125 -8.828125 L 3.78125 -6.484375 L 8.8125 -6.484375 L 8.8125 -4.53125 L 3.78125 -4.53125 L 3.78125 -2.015625 Z M 9.6875 -2.015625 "/></g></g></g><g fill="#ffffff" fill-opacity="1"><g transform="translate(82.353188, 214.145259)"><g><path d="M 4.84375 0.1875 C 3.988281 0.1875 3.160156 0.0703125 2.359375 -0.15625 C 1.554688 -0.394531 0.914062 -0.695312 0.4375 -1.0625 L 1.28125 -2.953125 C 1.75 -2.617188 2.300781 -2.347656 2.9375 -2.140625 C 3.582031 -1.929688 4.222656 -1.828125 4.859375 -1.828125 C 5.578125 -1.828125 6.101562 -1.929688 6.4375 -2.140625 C 6.78125 -2.359375 6.953125 -2.640625 6.953125 -2.984375 C 6.953125 -3.242188 6.851562 -3.457031 6.65625 -3.625 C 6.457031 -3.800781 6.195312 -3.941406 5.875 -4.046875 C 5.5625 -4.148438 5.140625 -4.265625 4.609375 -4.390625 C 3.773438 -4.585938 3.09375 -4.78125 2.5625 -4.96875 C 2.039062 -5.164062 1.59375 -5.484375 1.21875 -5.921875 C 0.84375 -6.359375 0.65625 -6.9375 0.65625 -7.65625 C 0.65625 -8.289062 0.820312 -8.863281 1.15625 -9.375 C 1.5 -9.882812 2.015625 -10.285156 2.703125 -10.578125 C 3.390625 -10.878906 4.226562 -11.03125 5.21875 -11.03125 C 5.914062 -11.03125 6.59375 -10.945312 7.25 -10.78125 C 7.914062 -10.625 8.492188 -10.390625 8.984375 -10.078125 L 8.21875 -8.171875 C 7.21875 -8.734375 6.210938 -9.015625 5.203125 -9.015625 C 4.503906 -9.015625 3.984375 -8.898438 3.640625 -8.671875 C 3.304688 -8.453125 3.140625 -8.15625 3.140625 -7.78125 C 3.140625 -7.40625 3.332031 -7.128906 3.71875 -6.953125 C 4.113281 -6.773438 4.707031 -6.597656 5.5 -6.421875 C 6.332031 -6.222656 7.007812 -6.023438 7.53125 -5.828125 C 8.0625 -5.628906 8.515625 -5.316406 8.890625 -4.890625 C 9.265625 -4.472656 9.453125 -3.898438 9.453125 -3.171875 C 9.453125 -2.554688 9.28125 -1.992188 8.9375 -1.484375 C 8.59375 -0.972656 8.070312 -0.566406 7.375 -0.265625 C 6.6875 0.0351562 5.84375 0.1875 4.84375 0.1875 Z M 4.84375 0.1875 "/></g></g></g><g fill="#ffffff" fill-opacity="1"><g transform="translate(96.886654, 214.145259)"><g><path d="M 3.53125 -8.796875 L 0.0625 -8.796875 L 0.0625 -10.84375 L 9.515625 -10.84375 L 9.515625 -8.796875 L 6.046875 -8.796875 L 6.046875 0 L 3.53125 0 Z M 3.53125 -8.796875 "/></g></g></g><g fill="#ffffff" fill-opacity="1"><g transform="translate(111.110272, 214.145259)"><g><path d="M 2.03125 0.125 C 1.601562 0.125 1.242188 -0.0195312 0.953125 -0.3125 C 0.671875 -0.601562 0.53125 -0.960938 0.53125 -1.390625 C 0.53125 -1.835938 0.671875 -2.195312 0.953125 -2.46875 C 1.242188 -2.75 1.601562 -2.890625 2.03125 -2.890625 C 2.457031 -2.890625 2.8125 -2.75 3.09375 -2.46875 C 3.382812 -2.195312 3.53125 -1.835938 3.53125 -1.390625 C 3.53125 -0.960938 3.382812 -0.601562 3.09375 -0.3125 C 2.8125 -0.0195312 2.457031 0.125 2.03125 0.125 Z M 2.03125 0.125 "/></g></g></g><g fill="#ffffff" fill-opacity="1"><g transform="translate(256.864162, 214.145259)"><g><path d="M 8.71875 -2.046875 L 8.71875 0 L 0.515625 0 L 0.515625 -1.625 L 4.703125 -5.578125 C 5.140625 -6.003906 5.4375 -6.367188 5.59375 -6.671875 C 5.75 -6.972656 5.828125 -7.273438 5.828125 -7.578125 C 5.828125 -8.015625 5.675781 -8.347656 5.375 -8.578125 C 5.082031 -8.804688 4.65625 -8.921875 4.09375 -8.921875 C 3.613281 -8.921875 3.179688 -8.832031 2.796875 -8.65625 C 2.421875 -8.476562 2.101562 -8.207031 1.84375 -7.84375 L 0.015625 -9.015625 C 0.441406 -9.648438 1.023438 -10.144531 1.765625 -10.5 C 2.515625 -10.851562 3.367188 -11.03125 4.328125 -11.03125 C 5.128906 -11.03125 5.832031 -10.898438 6.4375 -10.640625 C 7.039062 -10.378906 7.507812 -10.003906 7.84375 -9.515625 C 8.1875 -9.035156 8.359375 -8.472656 8.359375 -7.828125 C 8.359375 -7.234375 8.234375 -6.675781 7.984375 -6.15625 C 7.734375 -5.644531 7.253906 -5.0625 6.546875 -4.40625 L 4.046875 -2.046875 Z M 8.71875 -2.046875 "/></g></g></g><g fill="#ffffff" fill-opacity="1"><g transform="translate(270.653992, 214.145259)"><g><path d="M 5.25 0.1875 C 4.351562 0.1875 3.550781 -0.03125 2.84375 -0.46875 C 2.144531 -0.914062 1.597656 -1.5625 1.203125 -2.40625 C 0.804688 -3.25 0.609375 -4.253906 0.609375 -5.421875 C 0.609375 -6.585938 0.804688 -7.59375 1.203125 -8.4375 C 1.597656 -9.28125 2.144531 -9.921875 2.84375 -10.359375 C 3.550781 -10.804688 4.351562 -11.03125 5.25 -11.03125 C 6.15625 -11.03125 6.957031 -10.804688 7.65625 -10.359375 C 8.363281 -9.921875 8.914062 -9.28125 9.3125 -8.4375 C 9.707031 -7.59375 9.90625 -6.585938 9.90625 -5.421875 C 9.90625 -4.253906 9.707031 -3.25 9.3125 -2.40625 C 8.914062 -1.5625 8.363281 -0.914062 7.65625 -0.46875 C 6.957031 -0.03125 6.15625 0.1875 5.25 0.1875 Z M 5.25 -1.9375 C 5.914062 -1.9375 6.4375 -2.21875 6.8125 -2.78125 C 7.1875 -3.351562 7.375 -4.234375 7.375 -5.421875 C 7.375 -6.609375 7.1875 -7.484375 6.8125 -8.046875 C 6.4375 -8.617188 5.914062 -8.90625 5.25 -8.90625 C 4.601562 -8.90625 4.085938 -8.617188 3.703125 -8.046875 C 3.328125 -7.484375 3.140625 -6.609375 3.140625 -5.421875 C 3.140625 -4.234375 3.328125 -3.351562 3.703125 -2.78125 C 4.085938 -2.21875 4.601562 -1.9375 5.25 -1.9375 Z M 5.25 -1.9375 "/></g></g></g><g fill="#ffffff" fill-opacity="1"><g transform="translate(285.822639, 214.145259)"><g><path d="M 8.71875 -2.046875 L 8.71875 0 L 0.515625 0 L 0.515625 -1.625 L 4.703125 -5.578125 C 5.140625 -6.003906 5.4375 -6.367188 5.59375 -6.671875 C 5.75 -6.972656 5.828125 -7.273438 5.828125 -7.578125 C 5.828125 -8.015625 5.675781 -8.347656 5.375 -8.578125 C 5.082031 -8.804688 4.65625 -8.921875 4.09375 -8.921875 C 3.613281 -8.921875 3.179688 -8.832031 2.796875 -8.65625 C 2.421875 -8.476562 2.101562 -8.207031 1.84375 -7.84375 L 0.015625 -9.015625 C 0.441406 -9.648438 1.023438 -10.144531 1.765625 -10.5 C 2.515625 -10.851562 3.367188 -11.03125 4.328125 -11.03125 C 5.128906 -11.03125 5.832031 -10.898438 6.4375 -10.640625 C 7.039062 -10.378906 7.507812 -10.003906 7.84375 -9.515625 C 8.1875 -9.035156 8.359375 -8.472656 8.359375 -7.828125 C 8.359375 -7.234375 8.234375 -6.675781 7.984375 -6.15625 C 7.734375 -5.644531 7.253906 -5.0625 6.546875 -4.40625 L 4.046875 -2.046875 Z M 8.71875 -2.046875 "/></g></g></g><g fill="#ffffff" fill-opacity="1"><g transform="translate(299.612468, 214.145259)"><g><path d="M 10.546875 -2.28125 L 8.765625 -2.28125 L 8.765625 0 L 6.328125 0 L 6.328125 -2.28125 L 0.484375 -2.28125 L 0.484375 -3.96875 L 5.59375 -10.84375 L 8.234375 -10.84375 L 3.484375 -4.328125 L 6.40625 -4.328125 L 6.40625 -6.359375 L 8.765625 -6.359375 L 8.765625 -4.328125 L 10.546875 -4.328125 Z M 10.546875 -2.28125 "/></g></g></g></svg>