<svg xmlns="http://www.w3.org/2000/svg" xmlns:xlink="http://www.w3.org/1999/xlink" width="1080" zoomAndPan="magnify" viewBox="0 0 810 809.999993" height="1080" preserveAspectRatio="xMidYMid meet" version="1.0"><defs><clipPath id="7b8c11176d"><path d="M 9.609375 9.609375 L 800.109375 9.609375 L 800.109375 800.109375 L 9.609375 800.109375 Z M 9.609375 9.609375 " clip-rule="nonzero"/></clipPath></defs><g clip-path="url(#7b8c11176d)"><path fill="#000000" d="M 404.859375 9.609375 C 398.390625 9.609375 391.925781 9.769531 385.464844 10.085938 C 379.003906 10.402344 372.554688 10.878906 366.117188 11.511719 C 359.679688 12.148438 353.261719 12.9375 346.863281 13.886719 C 340.464844 14.835938 334.09375 15.941406 327.75 17.203125 C 321.40625 18.464844 315.097656 19.882812 308.820312 21.457031 C 302.546875 23.027344 296.316406 24.75 290.125 26.628906 C 283.933594 28.507812 277.792969 30.535156 271.703125 32.714844 C 265.613281 34.894531 259.582031 37.222656 253.605469 39.695312 C 247.628906 42.171875 241.714844 44.792969 235.867188 47.558594 C 230.023438 50.324219 224.246094 53.230469 218.539062 56.28125 C 212.835938 59.328125 207.210938 62.515625 201.660156 65.84375 C 196.113281 69.167969 190.648438 72.628906 185.269531 76.222656 C 179.894531 79.816406 174.605469 83.539062 169.410156 87.390625 C 164.214844 91.246094 159.117188 95.222656 154.117188 99.328125 C 149.117188 103.429688 144.21875 107.65625 139.425781 112 C 134.632812 116.34375 129.949219 120.800781 125.375 125.375 C 120.800781 129.949219 116.34375 134.632812 112 139.425781 C 107.65625 144.21875 103.429688 149.117188 99.328125 154.117188 C 95.222656 159.117188 91.246094 164.214844 87.390625 169.410156 C 83.539062 174.605469 79.816406 179.894531 76.222656 185.269531 C 72.628906 190.648438 69.167969 196.113281 65.84375 201.660156 C 62.515625 207.210938 59.328125 212.835938 56.28125 218.539062 C 53.230469 224.246094 50.324219 230.023438 47.558594 235.867188 C 44.792969 241.714844 42.171875 247.628906 39.695312 253.605469 C 37.222656 259.582031 34.894531 265.613281 32.714844 271.703125 C 30.535156 277.792969 28.507812 283.933594 26.628906 290.125 C 24.75 296.316406 23.027344 302.546875 21.457031 308.820312 C 19.882812 315.097656 18.464844 321.40625 17.203125 327.75 C 15.941406 334.09375 14.835938 340.464844 13.886719 346.863281 C 12.9375 353.261719 12.148438 359.679688 11.511719 366.117188 C 10.878906 372.554688 10.402344 379.003906 10.085938 385.464844 C 9.769531 391.925781 9.609375 398.390625 9.609375 404.859375 C 9.609375 411.328125 9.769531 417.792969 10.085938 424.253906 C 10.402344 430.714844 10.878906 437.164062 11.511719 443.601562 C 12.148438 450.039062 12.9375 456.457031 13.886719 462.855469 C 14.835938 469.253906 15.941406 475.625 17.203125 481.96875 C 18.464844 488.3125 19.882812 494.625 21.457031 500.898438 C 23.027344 507.171875 24.75 513.40625 26.628906 519.59375 C 28.507812 525.785156 30.535156 531.925781 32.714844 538.015625 C 34.894531 544.105469 37.222656 550.140625 39.695312 556.117188 C 42.171875 562.09375 44.792969 568.003906 47.558594 573.851562 C 50.324219 579.699219 53.230469 585.476562 56.28125 591.179688 C 59.328125 596.882812 62.515625 602.511719 65.84375 608.058594 C 69.167969 613.609375 72.628906 619.070312 76.222656 624.449219 C 79.816406 629.828125 83.539062 635.113281 87.390625 640.308594 C 91.246094 645.507812 95.222656 650.605469 99.328125 655.605469 C 103.429688 660.605469 107.65625 665.5 112 670.292969 C 116.34375 675.085938 120.800781 679.769531 125.375 684.34375 C 129.949219 688.917969 134.632812 693.378906 139.425781 697.722656 C 144.21875 702.066406 149.117188 706.289062 154.117188 710.390625 C 159.117188 714.496094 164.214844 718.472656 169.410156 722.328125 C 174.605469 726.179688 179.894531 729.90625 185.269531 733.5 C 190.648438 737.09375 196.113281 740.550781 201.660156 743.878906 C 207.210938 747.203125 212.835938 750.390625 218.539062 753.441406 C 224.246094 756.488281 230.023438 759.394531 235.867188 762.160156 C 241.714844 764.925781 247.628906 767.546875 253.605469 770.023438 C 259.582031 772.5 265.613281 774.824219 271.703125 777.003906 C 277.792969 779.183594 283.933594 781.214844 290.125 783.089844 C 296.316406 784.96875 302.546875 786.691406 308.820312 788.265625 C 315.097656 789.835938 321.40625 791.253906 327.75 792.515625 C 334.09375 793.777344 340.464844 794.882812 346.863281 795.832031 C 353.261719 796.78125 359.679688 797.574219 366.117188 798.207031 C 372.554688 798.839844 379.003906 799.316406 385.464844 799.632812 C 391.925781 799.953125 398.390625 800.109375 404.859375 800.109375 C 411.328125 800.109375 417.792969 799.953125 424.253906 799.632812 C 430.714844 799.316406 437.164062 798.839844 443.601562 798.207031 C 450.039062 797.574219 456.457031 796.78125 462.855469 795.832031 C 469.253906 794.882812 475.625 793.777344 481.96875 792.515625 C 488.3125 791.253906 494.625 789.835938 500.898438 788.265625 C 507.171875 786.691406 513.40625 784.96875 519.59375 783.089844 C 525.785156 781.214844 531.925781 779.183594 538.015625 777.003906 C 544.105469 774.824219 550.140625 772.5 556.117188 770.023438 C 562.09375 767.546875 568.003906 764.925781 573.851562 762.160156 C 579.699219 759.394531 585.476562 756.488281 591.179688 753.441406 C 596.882812 750.390625 602.511719 747.203125 608.058594 743.878906 C 613.609375 740.550781 619.070312 737.09375 624.449219 733.5 C 629.828125 729.90625 635.113281 726.179688 640.308594 722.328125 C 645.503906 718.472656 650.605469 714.496094 655.605469 710.390625 C 660.605469 706.289062 665.5 702.066406 670.292969 697.722656 C 675.085938 693.378906 679.769531 688.917969 684.34375 684.34375 C 688.917969 679.769531 693.378906 675.085938 697.722656 670.292969 C 702.066406 665.5 706.289062 660.605469 710.390625 655.605469 C 714.496094 650.605469 718.472656 645.507812 722.328125 640.308594 C 726.179688 635.113281 729.90625 629.828125 733.5 624.449219 C 737.09375 619.070312 740.550781 613.609375 743.878906 608.058594 C 747.203125 602.511719 750.390625 596.882812 753.441406 591.179688 C 756.488281 585.476562 759.394531 579.699219 762.160156 573.851562 C 764.925781 568.003906 767.546875 562.09375 770.023438 556.117188 C 772.5 550.140625 774.824219 544.105469 777.003906 538.015625 C 779.183594 531.925781 781.214844 525.785156 783.089844 519.59375 C 784.96875 513.40625 786.691406 507.171875 788.265625 500.898438 C 789.835938 494.625 791.253906 488.3125 792.515625 481.96875 C 793.777344 475.625 794.882812 469.253906 795.832031 462.855469 C 796.78125 456.457031 797.574219 450.039062 798.207031 443.601562 C 798.839844 437.164062 799.316406 430.714844 799.632812 424.253906 C 799.953125 417.792969 800.109375 411.328125 800.109375 404.859375 C 800.109375 398.390625 799.949219 391.925781 799.632812 385.46875 C 799.3125 379.007812 798.835938 372.558594 798.203125 366.121094 C 797.566406 359.683594 796.777344 353.265625 795.824219 346.867188 C 794.875 340.46875 793.769531 334.097656 792.507812 327.753906 C 791.246094 321.410156 789.828125 315.101562 788.253906 308.828125 C 786.683594 302.550781 784.957031 296.320312 783.078125 290.128906 C 781.203125 283.941406 779.171875 277.800781 776.992188 271.710938 C 774.8125 265.621094 772.484375 259.589844 770.011719 253.613281 C 767.535156 247.636719 764.914062 241.726562 762.148438 235.878906 C 759.382812 230.03125 756.472656 224.253906 753.425781 218.550781 C 750.375 212.847656 747.1875 207.21875 743.863281 201.671875 C 740.535156 196.125 737.078125 190.660156 733.484375 185.28125 C 729.890625 179.90625 726.164062 174.617188 722.3125 169.421875 C 718.460938 164.226562 714.480469 159.128906 710.378906 154.128906 C 706.273438 149.128906 702.050781 144.234375 697.707031 139.441406 C 693.363281 134.648438 688.902344 129.964844 684.328125 125.390625 C 679.753906 120.816406 675.074219 116.359375 670.28125 112.015625 C 665.488281 107.671875 660.589844 103.445312 655.589844 99.34375 C 650.589844 95.238281 645.492188 91.261719 640.296875 87.40625 C 635.101562 83.554688 629.816406 79.832031 624.4375 76.238281 C 619.058594 72.644531 613.597656 69.183594 608.046875 65.859375 C 602.5 62.53125 596.875 59.34375 591.167969 56.296875 C 585.464844 53.246094 579.691406 50.339844 573.84375 47.574219 C 567.996094 44.804688 562.082031 42.1875 556.109375 39.710938 C 550.132812 37.234375 544.097656 34.90625 538.007812 32.726562 C 531.917969 30.546875 525.777344 28.519531 519.589844 26.640625 C 513.398438 24.761719 507.167969 23.039062 500.894531 21.464844 C 494.621094 19.894531 488.308594 18.476562 481.964844 17.214844 C 475.621094 15.949219 469.25 14.84375 462.851562 13.894531 C 456.453125 12.945312 450.035156 12.152344 443.601562 11.519531 C 437.164062 10.882812 430.714844 10.40625 424.253906 10.089844 C 417.792969 9.769531 411.328125 9.609375 404.859375 9.609375 Z M 404.859375 157.828125 C 407.199219 157.828125 409.535156 157.894531 411.871094 158.027344 C 414.203125 158.164062 416.53125 158.363281 418.855469 158.632812 C 421.179688 158.902344 423.492188 159.238281 425.792969 159.640625 C 428.097656 160.042969 430.386719 160.511719 432.664062 161.046875 C 434.941406 161.582031 437.199219 162.183594 439.441406 162.847656 C 441.683594 163.511719 443.902344 164.242188 446.101562 165.039062 C 448.300781 165.832031 450.476562 166.6875 452.625 167.609375 C 454.773438 168.53125 456.894531 169.511719 458.988281 170.554688 C 461.082031 171.597656 463.140625 172.699219 465.171875 173.859375 C 467.199219 175.023438 469.195312 176.242188 471.152344 177.519531 C 473.109375 178.796875 475.03125 180.132812 476.914062 181.519531 C 478.792969 182.90625 480.632812 184.351562 482.429688 185.84375 C 484.230469 187.339844 485.980469 188.886719 487.691406 190.480469 C 489.398438 192.078125 491.058594 193.722656 492.671875 195.414062 C 494.285156 197.109375 495.851562 198.847656 497.363281 200.628906 C 498.875 202.414062 500.335938 204.238281 501.742188 206.105469 C 503.148438 207.972656 504.5 209.878906 505.796875 211.824219 C 507.09375 213.769531 508.335938 215.753906 509.515625 217.769531 C 510.699219 219.785156 511.820312 221.835938 512.886719 223.917969 C 513.949219 226 514.953125 228.113281 515.894531 230.253906 C 516.835938 232.394531 517.710938 234.558594 518.527344 236.75 C 519.34375 238.941406 520.097656 241.15625 520.785156 243.390625 C 521.472656 245.625 522.09375 247.878906 522.652344 250.148438 C 523.210938 252.417969 523.703125 254.703125 524.128906 257.003906 C 524.554688 259.304688 524.910156 261.613281 525.203125 263.933594 C 525.496094 266.253906 525.71875 268.578125 525.878906 270.910156 C 526.035156 273.246094 526.125 275.582031 526.144531 277.917969 C 526.167969 280.257812 526.121094 282.59375 526.007812 284.929688 C 525.894531 287.265625 525.714844 289.59375 525.46875 291.921875 C 525.21875 294.246094 524.902344 296.5625 524.523438 298.867188 C 524.140625 301.175781 523.691406 303.46875 523.175781 305.75 C 522.660156 308.03125 522.082031 310.296875 521.433594 312.542969 C 520.789062 314.789062 520.078125 317.015625 519.304688 319.222656 C 518.53125 321.429688 517.691406 323.609375 516.792969 325.769531 C 515.890625 327.925781 514.929688 330.054688 513.902344 332.160156 C 512.878906 334.261719 511.796875 336.332031 510.652344 338.371094 C 509.507812 340.410156 508.304688 342.414062 507.046875 344.382812 C 505.785156 346.355469 504.46875 348.285156 503.097656 350.179688 C 501.726562 352.074219 500.300781 353.925781 498.820312 355.738281 C 497.34375 357.546875 495.8125 359.316406 494.230469 361.035156 C 492.652344 362.757812 491.019531 364.433594 489.34375 366.0625 C 487.664062 367.691406 485.941406 369.269531 484.171875 370.800781 C 482.402344 372.328125 480.589844 373.804688 478.734375 375.226562 C 476.878906 376.652344 474.984375 378.019531 473.050781 379.335938 C 471.117188 380.648438 469.148438 381.90625 467.140625 383.105469 C 465.132812 384.304688 463.09375 385.445312 461.019531 386.527344 C 458.949219 387.609375 456.84375 388.632812 454.714844 389.59375 C 452.582031 390.554688 450.421875 391.449219 448.238281 392.285156 C 446.054688 393.121094 443.847656 393.894531 441.621094 394.601562 C 439.390625 395.308594 437.144531 395.953125 434.878906 396.53125 C 432.613281 397.109375 430.332031 397.621094 428.039062 398.066406 C 425.742188 398.511719 423.4375 398.890625 421.117188 399.203125 C 418.800781 399.515625 416.476562 399.761719 414.144531 399.9375 C 411.8125 400.117188 409.480469 400.226562 407.140625 400.269531 C 404.804688 400.3125 402.464844 400.289062 400.128906 400.195312 C 397.792969 400.101562 395.460938 399.941406 393.132812 399.714844 C 390.808594 399.488281 388.488281 399.195312 386.179688 398.832031 C 383.867188 398.472656 381.570312 398.042969 379.285156 397.546875 C 377 397.054688 374.730469 396.492188 372.476562 395.867188 C 370.222656 395.242188 367.992188 394.550781 365.777344 393.796875 C 363.566406 393.042969 361.375 392.222656 359.210938 391.34375 C 357.042969 390.460938 354.90625 389.515625 352.796875 388.511719 C 350.683594 387.507812 348.605469 386.441406 346.554688 385.316406 C 344.503906 384.1875 342.488281 383.003906 340.507812 381.761719 C 238.730469 317.289062 282.828125 159.0625 404.859375 157.828125 Z M 547.027344 651.890625 L 262.695312 651.890625 C 261.226562 651.886719 259.761719 651.851562 258.296875 651.773438 C 256.835938 651.699219 255.371094 651.589844 253.914062 651.445312 C 252.457031 651.296875 251 651.117188 249.550781 650.898438 C 248.101562 650.679688 246.65625 650.429688 245.21875 650.140625 C 243.78125 649.851562 242.351562 649.527344 240.933594 649.167969 C 239.511719 648.8125 238.097656 648.417969 236.695312 647.992188 C 235.292969 647.5625 233.902344 647.101562 232.523438 646.605469 C 231.144531 646.109375 229.777344 645.582031 228.421875 645.019531 C 227.070312 644.453125 225.730469 643.859375 224.40625 643.230469 C 223.082031 642.601562 221.773438 641.941406 220.480469 641.25 C 219.1875 640.558594 217.914062 639.832031 216.65625 639.078125 C 215.398438 638.324219 214.164062 637.539062 212.945312 636.722656 C 211.726562 635.90625 210.527344 635.0625 209.351562 634.1875 C 208.175781 633.3125 207.019531 632.410156 205.886719 631.476562 C 204.757812 630.546875 203.648438 629.589844 202.5625 628.605469 C 201.476562 627.617188 200.414062 626.605469 199.378906 625.570312 C 198.34375 624.53125 197.332031 623.46875 196.347656 622.382812 C 195.367188 621.296875 194.410156 620.1875 193.480469 619.050781 C 192.550781 617.917969 191.648438 616.761719 190.777344 615.585938 C 189.902344 614.40625 189.058594 613.207031 188.246094 611.988281 C 187.433594 610.769531 186.648438 609.53125 185.894531 608.273438 C 185.140625 607.015625 184.417969 605.738281 183.730469 604.445312 C 183.039062 603.152344 182.378906 601.84375 181.753906 600.519531 C 181.125 599.195312 180.53125 597.855469 179.972656 596.5 C 179.410156 595.144531 178.882812 593.777344 178.390625 592.398438 C 177.894531 591.015625 177.433594 589.625 177.011719 588.222656 C 176.585938 586.820312 176.191406 585.40625 175.835938 583.984375 C 175.480469 582.5625 175.160156 581.132812 174.871094 579.695312 C 174.585938 578.257812 174.335938 576.8125 174.121094 575.363281 C 173.902344 573.914062 173.722656 572.457031 173.578125 571 C 173.4375 569.539062 173.328125 568.078125 173.253906 566.613281 C 173.183594 565.148438 173.144531 563.683594 173.144531 562.21875 C 173.144531 486.257812 229.097656 420.671875 309.382812 391.148438 C 311.035156 392.546875 312.714844 393.90625 314.425781 395.230469 C 316.136719 396.554688 317.875 397.839844 319.644531 399.085938 C 321.410156 400.332031 323.203125 401.539062 325.023438 402.707031 C 326.84375 403.875 328.691406 405.003906 330.558594 406.089844 C 332.429688 407.175781 334.320312 408.222656 336.238281 409.226562 C 338.152344 410.230469 340.089844 411.191406 342.046875 412.113281 C 344.003906 413.03125 345.984375 413.90625 347.980469 414.738281 C 349.976562 415.570312 351.988281 416.359375 354.019531 417.101562 C 356.050781 417.847656 358.097656 418.546875 360.160156 419.199219 C 362.21875 419.855469 364.296875 420.460938 366.382812 421.023438 C 368.472656 421.589844 370.570312 422.105469 372.683594 422.574219 C 374.792969 423.046875 376.914062 423.472656 379.042969 423.847656 C 381.171875 424.226562 383.308594 424.558594 385.453125 424.839844 C 387.597656 425.125 389.746094 425.363281 391.902344 425.550781 C 394.054688 425.742188 396.214844 425.882812 398.375 425.976562 C 400.535156 426.074219 402.699219 426.121094 404.859375 426.121094 C 407.023438 426.121094 409.183594 426.074219 411.34375 425.976562 C 413.507812 425.882812 415.664062 425.742188 417.820312 425.550781 C 419.972656 425.363281 422.121094 425.125 424.265625 424.839844 C 426.410156 424.558594 428.546875 424.226562 430.675781 423.847656 C 432.804688 423.472656 434.925781 423.046875 437.039062 422.574219 C 439.148438 422.105469 441.25 421.589844 443.335938 421.023438 C 445.425781 420.460938 447.5 419.851562 449.5625 419.199219 C 451.625 418.546875 453.667969 417.847656 455.699219 417.101562 C 457.730469 416.359375 459.746094 415.570312 461.742188 414.738281 C 463.738281 413.90625 465.714844 413.03125 467.671875 412.113281 C 469.628906 411.191406 471.566406 410.230469 473.484375 409.226562 C 475.398438 408.222656 477.292969 407.175781 479.160156 406.089844 C 481.03125 405.003906 482.875 403.875 484.695312 402.707031 C 486.515625 401.539062 488.308594 400.332031 490.078125 399.085938 C 491.84375 397.839844 493.582031 396.554688 495.292969 395.230469 C 497.003906 393.90625 498.6875 392.546875 500.335938 391.148438 C 580.621094 420.671875 636.574219 486.257812 636.574219 562.21875 C 636.574219 563.683594 636.539062 565.148438 636.464844 566.613281 C 636.394531 568.078125 636.285156 569.539062 636.140625 571 C 635.996094 572.457031 635.816406 573.914062 635.601562 575.363281 C 635.386719 576.8125 635.132812 578.257812 634.847656 579.695312 C 634.5625 581.132812 634.238281 582.5625 633.882812 583.984375 C 633.527344 585.40625 633.136719 586.820312 632.710938 588.222656 C 632.285156 589.625 631.824219 591.015625 631.332031 592.398438 C 630.835938 593.777344 630.308594 595.144531 629.75 596.5 C 629.1875 597.855469 628.59375 599.195312 627.96875 600.519531 C 627.339844 601.84375 626.683594 603.152344 625.992188 604.445312 C 625.300781 605.738281 624.578125 607.015625 623.824219 608.273438 C 623.070312 609.53125 622.289062 610.769531 621.472656 611.988281 C 620.660156 613.207031 619.816406 614.40625 618.945312 615.585938 C 618.070312 616.761719 617.171875 617.917969 616.242188 619.050781 C 615.3125 620.1875 614.355469 621.296875 613.371094 622.382812 C 612.386719 623.46875 611.378906 624.53125 610.339844 625.570312 C 609.304688 626.605469 608.246094 627.617188 607.160156 628.605469 C 606.074219 629.589844 604.964844 630.546875 603.832031 631.476562 C 602.699219 632.410156 601.542969 633.3125 600.367188 634.1875 C 599.191406 635.0625 597.992188 635.90625 596.777344 636.722656 C 595.558594 637.539062 594.320312 638.324219 593.0625 639.078125 C 591.804688 639.832031 590.53125 640.558594 589.238281 641.25 C 587.949219 641.941406 586.640625 642.601562 585.316406 643.230469 C 583.992188 643.859375 582.652344 644.453125 581.296875 645.019531 C 579.945312 645.582031 578.578125 646.109375 577.199219 646.605469 C 575.816406 647.101562 574.425781 647.5625 573.023438 647.992188 C 571.621094 648.417969 570.210938 648.8125 568.789062 649.167969 C 567.367188 649.527344 565.9375 649.851562 564.5 650.140625 C 563.0625 650.429688 561.617188 650.679688 560.167969 650.898438 C 558.71875 651.117188 557.265625 651.296875 555.804688 651.445312 C 554.347656 651.589844 552.886719 651.699219 551.421875 651.773438 C 549.957031 651.851562 548.492188 651.886719 547.027344 651.890625 Z M 547.027344 651.890625 " fill-opacity="1" fill-rule="nonzero"/></g></svg>